<svg id="Layer_1" enable-background="new 0 0 512 512" viewBox="0 0 512 512" xmlns="http://www.w3.org/2000/svg"><g><g><path clip-rule="evenodd" d="m389.988 238.303h-47.699v84.872h47.699c23.348 0 42.45-19.103 42.45-42.422v-.029c0-23.319-19.102-42.421-42.45-42.421z" fill="#e4e3ff" fill-rule="evenodd"/></g><g><path clip-rule="evenodd" d="m389.988 238.303h-47.699v16.32h38.033c23.348 0 42.45 19.103 42.45 42.45 0 4.446-.688 8.748-1.979 12.793 7.199-7.629 11.645-17.898 11.645-29.113v-.029c0-23.319-19.102-42.421-42.45-42.421z" fill="#d0d0f7" fill-rule="evenodd"/></g><g><path clip-rule="evenodd" d="m102.502 310.497h60.664v138.623h-60.664z" fill="#e4e3ff" fill-rule="evenodd"/></g><g><path clip-rule="evenodd" d="m102.502 310.497h60.664v33.903 104.72h-26.676v-104.72c-11.1 0-23.004.459-33.989-.086v-33.817z" fill="#d0d0f7" fill-rule="evenodd"/></g><g><path clip-rule="evenodd" d="m105.628 233.972h81.918v93.534h-81.918c-25.728 0-46.781-21.053-46.781-46.753v-.029c-.001-25.699 21.052-46.752 46.781-46.752z" fill="#ff5ba8" fill-rule="evenodd"/></g><g><path clip-rule="evenodd" d="m319.629 160.86-132.084 73.112v93.534l132.084 73.112z" fill="#e4e3ff" fill-rule="evenodd"/></g><g><path clip-rule="evenodd" d="m345.272 131.661c14.112 0 25.642 11.53 25.642 25.642v246.872c0 14.112-11.531 25.642-25.642 25.642-14.112 0-25.642-11.53-25.642-25.642v-246.872c-.001-14.112 11.53-25.642 25.642-25.642z" fill="#ff5ba8" fill-rule="evenodd"/></g><g><path clip-rule="evenodd" d="m105.628 233.972h81.918v17.124h-67.06c-25.728 0-46.781 21.053-46.781 46.781 0 7.572 1.835 14.743 5.048 21.082-12.018-8.49-19.906-22.459-19.906-38.205v-.029c-.001-25.7 21.052-46.753 46.781-46.753z" fill="#ed4593" fill-rule="evenodd"/></g><g><path clip-rule="evenodd" d="m319.629 160.86-132.084 73.112v17.123l132.084-73.112z" fill="#d0d0f7" fill-rule="evenodd"/></g><g><path clip-rule="evenodd" d="m345.272 131.661c14.112 0 25.642 11.53 25.642 25.642v246.872c0 14.112-11.531 25.642-25.642 25.642-4.503 0-8.749-1.176-12.419-3.241 7.859-4.389 13.222-12.793 13.222-22.401v-246.872c0-9.608-5.364-18.013-13.222-22.401 3.67-2.065 7.915-3.241 12.419-3.241z" fill="#ed4593" fill-rule="evenodd"/></g><g><path clip-rule="evenodd" d="m271.127 233.972h-26.359v44.946l-43.942-44.946h-180.414c-5.736 0-10.412-5.278-10.412-11.731v-147.601c0-6.454 4.675-11.76 10.412-11.76h250.715c5.708 0 10.412 5.306 10.412 11.76v147.601c0 6.453-4.704 11.731-10.412 11.731z" fill="#9494f7" fill-rule="evenodd"/></g><g><path clip-rule="evenodd" d="m88.82 96.295 22.602 13.022 22.573 13.05v26.073 26.073l-22.573 13.021-22.602 13.051-22.573-13.051-22.573-13.021v-26.073-26.073l22.573-13.05z" fill="#fdd835" fill-rule="evenodd"/></g><g><path clip-rule="evenodd" d="m88.82 96.295 22.602 13.022 22.573 13.05v26.073 26.073l-22.573 13.021-22.602 13.051z" fill="#fbc02d" fill-rule="evenodd"/></g><g><path clip-rule="evenodd" d="m133.995 122.367-45.175 26.073-45.146-26.073 45.146-26.072z" fill="#ffa000" fill-rule="evenodd"/></g><g><path clip-rule="evenodd" d="m27.611 222.241v-147.601c0-6.454 4.675-11.76 10.412-11.76h-17.611c-5.737 0-10.412 5.306-10.412 11.76v147.601c0 6.454 4.675 11.731 10.412 11.731h17.611c-5.737 0-10.412-5.278-10.412-11.731z" fill="#8c8cf7" fill-rule="evenodd"/></g></g><path d="m392.329 229.95h-11.09v-73.586c0-18.795-15.279-34.086-34.058-34.086-18.37 0-33.384 14.609-34.055 32.818l-22.127 12.255v-94.451c0-11.051-8.379-20.041-18.679-20.041h-253.141c-10.299 0-18.679 8.991-18.679 20.041v149c0 11.051 8.38 20.041 18.679 20.041h178.724l41.964 42.895c1.567 1.602 3.684 2.457 5.839 2.457 1.037 0 2.083-.198 3.082-.605 3.074-1.254 5.083-4.243 5.083-7.563v-37.185h18.447c10.299 0 18.679-8.99 18.679-20.041v-35.877l22.095-12.238v214.391l-117.026-64.778v-60.809c0-4.511-3.657-8.167-8.167-8.167s-8.167 3.656-8.167 8.167v57.456h-74.512c-21.542 0-39.067-17.525-39.067-39.066 0-6.237 1.458-12.227 4.333-17.803 2.067-4.009.494-8.934-3.515-11.001-4.012-2.069-8.936-.494-11.001 3.515-4.024 7.803-6.151 16.548-6.151 25.29 0 26.667 18.942 48.991 44.077 54.233v115.762c0 4.51 3.657 8.167 8.167 8.167h61.25c4.511 0 8.167-3.656 8.167-8.167v-114.595h14.311l127.334 70.484c.657 18.206 15.677 32.817 34.056 32.817 18.779 0 34.058-15.279 34.058-34.058v-73.616h11.09c28.121 0 51-22.891 51-51.027-.001-28.138-22.879-51.029-51-51.029zm-120.01-4.344h-26.615c-4.51 0-8.167 3.657-8.167 8.167v25.326l-30.362-31.036c-1.537-1.571-3.641-2.457-5.838-2.457h-182.158c-.956 0-2.344-1.444-2.344-3.706v-149c0-2.263 1.389-3.707 2.344-3.707h253.141c.956 0 2.345 1.444 2.345 3.707v108.358.044 40.598c-.001 2.228-1.412 3.706-2.346 3.706zm-117.173 217.2h-44.916v-106.427h44.916zm209.758-37.184c0 9.772-7.951 17.723-17.723 17.723-9.789 0-17.753-7.951-17.753-17.723v-3.503c0-.012 0-.024 0-.037v-242.206c0-.014 0-.028 0-.042v-3.47c0-9.789 7.964-17.752 17.753-17.752 9.772 0 17.723 7.964 17.723 17.752zm27.425-89.951h-11.09v-69.387h11.09c19.115 0 34.665 15.563 34.665 34.694 0 19.13-15.55 34.693-34.665 34.693zm119.171-41.817c0 4.511-3.657 8.167-8.167 8.167h-44.917c-4.511 0-8.167-3.656-8.167-8.167 0-4.51 3.657-8.167 8.167-8.167h44.917c4.51 0 8.167 3.656 8.167 8.167zm-56.375-55.927c-2.748-3.576-2.076-8.703 1.5-11.452l38.895-29.887c3.578-2.748 8.703-2.076 11.453 1.5 2.748 3.576 2.076 8.703-1.5 11.452l-38.894 29.887c-1.484 1.139-3.235 1.691-4.971 1.691-2.451 0-4.874-1.098-6.483-3.191zm51.843 151.725c-1.608 2.09-4.03 3.188-6.479 3.188-1.738 0-3.489-.553-4.974-1.694l-38.894-29.916c-3.575-2.75-4.243-7.877-1.494-11.453 2.75-3.573 7.876-4.242 11.453-1.494l38.895 29.916c3.575 2.75 4.243 7.877 1.493 11.453zm-369.031-255.668-45.6-26.317c-2.528-1.463-5.647-1.463-8.175 0l-45.577 26.32c-2.528 1.458-4.086 4.155-4.086 7.074v52.65c0 2.916 1.556 5.611 4.08 7.071l45.591 26.327c1.262.728 2.672 1.094 4.081 1.094s2.819-.365 4.081-1.094l45.614-26.325c2.527-1.46 4.083-4.156 4.083-7.073v-52.65c-.001-2.92-1.561-5.618-4.092-7.077zm-57.854 71.906-29.25-16.892v-33.778l29.25 16.881zm8.167-47.934-29.261-16.888 29.261-16.898 29.271 16.894zm37.443 31.04-29.276 16.897v-33.792l29.276-16.896zm131.307-51.671c0 4.51-3.656 8.167-8.167 8.167h-81.986c-4.511 0-8.167-3.656-8.167-8.167s3.657-8.167 8.167-8.167h81.986c4.51-.001 8.167 3.656 8.167 8.167zm0 30.06c0 4.511-3.656 8.167-8.167 8.167h-81.986c-4.511 0-8.167-3.656-8.167-8.167 0-4.51 3.657-8.167 8.167-8.167h81.986c4.51 0 8.167 3.657 8.167 8.167zm0 30.09c0 4.51-3.656 8.167-8.167 8.167h-81.986c-4.511 0-8.167-3.656-8.167-8.167s3.657-8.167 8.167-8.167h81.986c4.51 0 8.167 3.656 8.167 8.167z"/></svg>