<?xml version="1.0" encoding="UTF-8" standalone="no"?>
<!-- Created with Inkscape (http://www.inkscape.org/) -->

<svg
   version="1.1"
   id="svg1053"
   xml:space="preserve"
   width="682.66669"
   height="682.66669"
   viewBox="0 0 682.66669 682.66669"
   xmlns="http://www.w3.org/2000/svg"
   xmlns:svg="http://www.w3.org/2000/svg"><defs
     id="defs1057"><clipPath
       clipPathUnits="userSpaceOnUse"
       id="clipPath1067"><path
         d="M 0,512 H 512 V 0 H 0 Z"
         id="path1065" /></clipPath></defs><g
     id="g1059"
     transform="matrix(1.3333333,0,0,-1.3333333,0,682.66667)"><g
       id="g1061"><g
         id="g1063"
         clip-path="url(#clipPath1067)"><g
           id="g1069"
           transform="translate(176.6089,88.1943)"><path
             d="m 0,0 c 40.155,0.203 88.678,21.546 88.678,75.542 l 0.03,0.119 -42.688,6.936 c -6.296,1.023 -10.922,6.46 -10.922,12.839 v 37.851 H 0 -35.098 c 0,0 0.004,-23.636 0.007,-38.171 10e-4,-6.401 -4.656,-11.847 -10.979,-12.845 L -88.678,75.542 C -88.678,17.32 -40.155,0.203 0,0"
             style="fill:#fff3de;fill-opacity:1;fill-rule:nonzero;stroke:none"
             id="path1071" /></g><g
           id="g1073"
           transform="translate(345.6377,34.5151)"><path
             d="m 0,0 -4.898,72.04 c -1.821,26.771 -21.911,48.727 -48.415,52.912 l -27.008,4.388 -0.03,-0.118 c -14.194,-35.116 -48.523,-59.928 -88.678,-60.131 -40.155,0.203 -74.484,25.015 -88.678,60.131 l -27.037,-4.27 c -26.505,-4.185 -46.595,-26.141 -48.415,-52.912 L -338.058,0 c -0.993,-14.614 10.594,-27.015 25.241,-27.015 H -169.029 -25.24 C -10.593,-27.015 0.993,-14.614 0,0"
             style="fill:#ff646f;fill-opacity:1;fill-rule:nonzero;stroke:none"
             id="path1075" /></g><g
           id="g1077"
           transform="translate(62.7246,60.8501)"><path
             d="M 0,0 V -53.35"
             style="fill:none;stroke:#000000;stroke-width:15;stroke-linecap:round;stroke-linejoin:round;stroke-miterlimit:10;stroke-dasharray:none;stroke-opacity:1"
             id="path1079" /></g><g
           id="g1081"
           transform="translate(279.6504,271.375)"><path
             d="m 0,0 -0.021,-7.48 -0.007,-0.369 c 0,-29.723 -22.151,-57.303 -22.151,-57.303"
             style="fill:none;stroke:#000000;stroke-width:15;stroke-linecap:round;stroke-linejoin:round;stroke-miterlimit:10;stroke-dasharray:none;stroke-opacity:1"
             id="path1083" /></g><g
           id="g1085"
           transform="translate(83.7622,268.1572)"><path
             d="M 0,0 H 24.513 V 55.614 H 0 c -9.705,0 -17.571,-7.867 -17.571,-17.572 V 17.572 C -17.571,7.867 -9.705,0 0,0"
             style="fill:#3e5959;fill-opacity:1;fill-rule:nonzero;stroke:none"
             id="path1087" /></g><g
           id="g1089"
           transform="translate(269.4551,268.1572)"><path
             d="M 0,0 H -24.512 V 55.614 H 0 c 9.705,0 17.572,-7.867 17.572,-17.572 V 17.572 C 17.572,7.867 9.705,0 0,0"
             style="fill:#3e5959;fill-opacity:1;fill-rule:nonzero;stroke:none"
             id="path1091" /></g><g
           id="g1093"
           transform="translate(201.1055,430.5151)"><path
             d="m 0,0 c 0,-13.529 -10.967,-24.497 -24.497,-24.497 -13.529,0 -24.496,10.968 -24.496,24.497 0,13.529 10.967,24.497 24.496,24.497 C -10.967,24.497 0,13.529 0,0"
             style="fill:#ffa812;fill-opacity:1;fill-rule:nonzero;stroke:none"
             id="path1095" /></g><g
           id="g1097"
           transform="translate(195.6372,402.0591)"><path
             d="m 0,0 h -35.922 c -32.302,0 -58.487,-26.186 -58.487,-58.487 l 0.494,-62.605 c 0.429,-20.013 8.839,-39.275 24.032,-52.357 12.232,-10.532 29.425,-30.22 52.137,-30.474 22.712,0.254 39.906,19.942 52.137,30.474 15.193,13.082 23.603,32.344 24.033,52.357 l 0.063,62.605 C 58.487,-26.186 32.301,0 0,0"
             style="fill:#fff3de;fill-opacity:1;fill-rule:nonzero;stroke:none"
             id="path1099" /></g><g
           id="g1101"
           transform="translate(195.6372,402.0586)"><path
             d="M 0,0 H -32.998 C -0.696,0 25.49,-26.186 25.49,-58.487 l -0.063,-62.605 c -0.43,-20.012 -8.84,-39.275 -24.033,-52.357 -9.073,-7.812 -25.005,-30.408 -19.14,-30.474 22.712,0.254 39.906,19.942 52.137,30.474 15.193,13.082 23.603,32.345 24.033,52.357 l 0.063,62.605 C 58.487,-26.186 32.301,0 0,0"
             style="fill:#ffe5c2;fill-opacity:1;fill-rule:nonzero;stroke:none"
             id="path1103" /></g><g
           id="g1105"
           transform="translate(176.6089,350.4687)"><path
             d="m 0,0 c 6.678,-13.325 26.705,-45.868 66.803,-55.817 10.065,-2.498 19.817,5.091 19.826,15.462 l 0.034,32.547 c 0,36.617 -29.685,66.301 -66.302,66.301 h -40.722 c -36.617,0 -66.302,-29.684 -66.302,-66.301 l 0.258,-32.609 c 0.081,-10.343 9.838,-17.861 19.87,-15.341 C -26.614,-45.73 -6.663,-13.296 0,0"
             style="fill:#ffc265;fill-opacity:1;fill-rule:nonzero;stroke:none"
             id="path1107" /></g><g
           id="g1109"
           transform="translate(196.9697,408.9619)"><path
             d="m 0,0 h -2.132 c 21.067,-11.104 35.437,-33.208 35.437,-58.677 l -0.034,-32.547 c -0.006,-6.481 -3.816,-11.876 -9.13,-14.401 6.623,-3.609 14.028,-6.633 22.301,-8.686 10.065,-2.497 19.817,5.092 19.827,15.462 l 0.033,32.548 C 66.302,-29.684 36.617,0 0,0"
             style="fill:#ffa812;fill-opacity:1;fill-rule:nonzero;stroke:none"
             id="path1111" /></g><g
           id="g1113"
           transform="translate(482.3447,27.019)"><path
             d="m 0,0 h -228.471 v 140.416 c 0,9.154 7.421,16.575 16.575,16.575 H -16.575 C -7.421,156.991 0,149.57 0,140.416 Z"
             style="fill:#fff5f5;fill-opacity:1;fill-rule:nonzero;stroke:none"
             id="path1115" /></g><g
           id="g1117"
           transform="translate(465.7695,184.0103)"><path
             d="m 0,0 h -33.157 c 9.154,0 16.575,-7.421 16.575,-16.575 V -156.991 H 16.575 V -16.575 C 16.575,-7.421 9.154,0 0,0"
             style="fill:#efe2dd;fill-opacity:1;fill-rule:nonzero;stroke:none"
             id="path1119" /></g><g
           id="g1121"
           transform="translate(389.6562,109.7407)"><path
             d="m 0,0 c 0,-11.899 -9.647,-21.546 -21.547,-21.546 -11.899,0 -21.547,9.647 -21.547,21.546 0,11.9 9.648,21.546 21.547,21.546 C -9.647,21.546 0,11.9 0,0"
             style="fill:#6bdae8;fill-opacity:1;fill-rule:nonzero;stroke:none"
             id="path1123" /></g><g
           id="g1125"
           transform="translate(389.6562,109.7407)"><path
             d="m 0,0 c 0,-11.899 -9.647,-21.546 -21.547,-21.546 -11.899,0 -21.547,9.647 -21.547,21.546 0,11.9 9.648,21.546 21.547,21.546 C -9.647,21.546 0,11.9 0,0 Z"
             style="fill:none;stroke:#000000;stroke-width:15;stroke-linecap:round;stroke-linejoin:round;stroke-miterlimit:10;stroke-dasharray:none;stroke-opacity:1"
             id="path1127" /></g><g
           id="g1129"
           transform="translate(485.5654,504.5)"><path
             d="m 0,0 h -142.68 c -10.446,0 -18.914,-8.468 -18.914,-18.914 v -74.421 c 0,-10.446 8.468,-18.915 18.914,-18.915 h 3.925 c 3.858,0 6.991,-3.114 7.014,-6.972 l 0.221,-38.002 c 0.033,-5.66 7.175,-8.118 10.684,-3.676 l 36.331,45.985 c 1.33,1.684 3.358,2.665 5.503,2.665 H 0 c 10.445,0 18.914,8.469 18.914,18.915 v 74.421 C 18.914,-8.468 10.445,0 0,0"
             style="fill:#98db7c;fill-opacity:1;fill-rule:nonzero;stroke:none"
             id="path1131" /></g><g
           id="g1133"
           transform="translate(378.8281,392.251)"><path
             d="m 0,0 c -5.221,0 -10.154,-2.39 -13.391,-6.486 l -11.531,-14.596 0.14,-23.893 c 0.032,-5.66 7.175,-8.118 10.683,-3.676 L 22.232,-2.666 C 23.562,-0.982 25.59,0 27.735,0 Z"
             style="fill:#6acb44;fill-opacity:1;fill-rule:nonzero;stroke:none"
             id="path1135" /></g><g
           id="g1137"
           transform="translate(485.5654,504.5)"><path
             d="m 0,0 h -32.604 c 10.445,0 18.913,-8.468 18.913,-18.914 v -74.421 c 0,-10.446 -8.468,-18.914 -18.913,-18.914 H 0 c 10.446,0 18.914,8.468 18.914,18.914 v 74.421 C 18.914,-8.468 10.446,0 0,0"
             style="fill:#6acb44;fill-opacity:1;fill-rule:nonzero;stroke:none"
             id="path1139" /></g><g
           id="g1141"
           transform="translate(356.5762,466)"><path
             d="M 0,0 H 115.298"
             style="fill:none;stroke:#000000;stroke-width:15;stroke-linecap:round;stroke-linejoin:round;stroke-miterlimit:10;stroke-dasharray:none;stroke-opacity:1"
             id="path1143" /></g><g
           id="g1145"
           transform="translate(356.5762,428.2871)"><path
             d="M 0,0 H 57.649"
             style="fill:none;stroke:#000000;stroke-width:15;stroke-linecap:round;stroke-linejoin:round;stroke-miterlimit:10;stroke-dasharray:none;stroke-opacity:1"
             id="path1147" /></g><g
           id="g1149"
           transform="translate(496.3418,7.5)"><path
             d="m 0,0 h -255.762 c -4.494,0 -8.137,3.643 -8.137,8.137 0,10.954 8.88,19.834 19.834,19.834 H -11.696 C -0.742,27.971 8.138,19.091 8.138,8.137 8.138,3.643 4.494,0 0,0"
             style="fill:#e1d3ce;fill-opacity:1;fill-rule:nonzero;stroke:none"
             id="path1151" /></g><g
           id="g1153"
           transform="translate(96.0254,370.4316)"><path
             d="m 0,0 c -3.902,-8.447 -6.079,-17.855 -6.079,-27.771 l 0.257,-32.608 c 0.082,-10.344 9.838,-17.862 19.87,-15.342 39.922,10.028 59.872,42.462 66.535,55.758 6.678,-13.325 26.706,-45.868 66.803,-55.817 10.066,-2.498 19.817,5.091 19.827,15.462 l 0.033,32.547 c 0,36.617 -29.684,66.301 -66.302,66.301 H 60.223 c -15.715,0 -30.152,-5.467 -41.515,-14.602"
             style="fill:none;stroke:#000000;stroke-width:15;stroke-linecap:round;stroke-linejoin:round;stroke-miterlimit:10;stroke-dasharray:none;stroke-opacity:1"
             id="path1155" /></g><g
           id="g1157"
           transform="translate(101.6123,294.8906)"><path
             d="m 0,0 0.11,-13.924 c 0.429,-20.013 8.839,-39.275 24.032,-52.357 12.232,-10.532 29.425,-30.22 52.137,-30.474 22.712,0.254 39.906,19.942 52.137,30.474 15.193,13.082 23.603,32.344 24.033,52.357 l 0.014,14.732"
             style="fill:none;stroke:#000000;stroke-width:15;stroke-linecap:round;stroke-linejoin:round;stroke-miterlimit:10;stroke-dasharray:none;stroke-opacity:1"
             id="path1159" /></g><g
           id="g1161"
           transform="translate(188.2603,408.9619)"><path
             d="m 0,0 c 7.65,4.145 12.845,12.242 12.845,21.553 0,13.53 -10.967,24.497 -24.496,24.497 -13.53,0 -24.497,-10.967 -24.497,-24.497 0,-9.311 5.195,-17.408 12.845,-21.553"
             style="fill:none;stroke:#000000;stroke-width:15;stroke-linecap:round;stroke-linejoin:round;stroke-miterlimit:10;stroke-dasharray:none;stroke-opacity:1"
             id="path1163" /></g><g
           id="g1165"
           transform="translate(90.0957,323.7715)"><path
             d="m 0,0 h -6.333 c -9.705,0 -17.572,-7.867 -17.572,-17.572 v -20.47 c 0,-9.705 7.867,-17.572 17.572,-17.572 h 19.366"
             style="fill:none;stroke:#000000;stroke-width:15;stroke-linecap:round;stroke-linejoin:round;stroke-miterlimit:10;stroke-dasharray:none;stroke-opacity:1"
             id="path1167" /></g><g
           id="g1169"
           transform="translate(252.6538,268.1572)"><path
             d="m 0,0 h 16.801 c 9.705,0 17.573,7.867 17.573,17.572 v 20.47 c 0,9.705 -7.868,17.572 -17.573,17.572 h -6.203"
             style="fill:none;stroke:#000000;stroke-width:15;stroke-linecap:round;stroke-linejoin:round;stroke-miterlimit:10;stroke-dasharray:none;stroke-opacity:1"
             id="path1171" /></g><g
           id="g1173"
           transform="translate(485.5654,504.5)"><path
             d="m 0,0 h -142.68 c -10.446,0 -18.914,-8.468 -18.914,-18.914 v -74.421 c 0,-10.446 8.468,-18.915 18.914,-18.915 h 3.925 c 3.858,0 6.991,-3.114 7.014,-6.972 l 0.221,-38.002 c 0.033,-5.66 7.175,-8.118 10.684,-3.676 l 36.331,45.985 c 1.33,1.684 3.358,2.665 5.503,2.665 H 0 c 10.445,0 18.914,8.469 18.914,18.915 v 74.421 C 18.914,-8.468 10.445,0 0,0 Z"
             style="fill:none;stroke:#000000;stroke-width:15;stroke-linecap:round;stroke-linejoin:round;stroke-miterlimit:10;stroke-dasharray:none;stroke-opacity:1"
             id="path1175" /></g><g
           id="g1177"
           transform="translate(141.5117,214.5127)"><path
             d="m 0,0 c 0.001,-8.117 0.004,-21.631 0.006,-31.202 0.001,-6.402 -4.656,-11.847 -10.979,-12.846 l -42.608,-6.728"
             style="fill:none;stroke:#000000;stroke-width:15;stroke-linecap:round;stroke-linejoin:round;stroke-miterlimit:10;stroke-dasharray:none;stroke-opacity:1"
             id="path1179" /></g><g
           id="g1181"
           transform="translate(211.707,212.4238)"><path
             d="m 0,0 v -28.793 c 0,-6.379 4.625,-11.817 10.922,-12.84 l 31.245,-5.076"
             style="fill:none;stroke:#000000;stroke-width:15;stroke-linecap:round;stroke-linejoin:round;stroke-miterlimit:10;stroke-dasharray:none;stroke-opacity:1"
             id="path1183" /></g><g
           id="g1185"
           transform="translate(253.8735,143.2158)"><path
             d="m 0,0 c -17.39,-23.879 -45.499,-39.449 -77.265,-39.61 -40.154,0.203 -74.484,25.016 -88.678,60.131 l -27.037,-4.27 c -26.505,-4.185 -46.595,-26.141 -48.415,-52.912 l -4.898,-72.04 c -0.994,-14.613 10.593,-27.015 25.24,-27.015 h 143.788 63.971"
             style="fill:none;stroke:#000000;stroke-width:15;stroke-linecap:round;stroke-linejoin:round;stroke-miterlimit:10;stroke-dasharray:none;stroke-opacity:1"
             id="path1187" /></g><g
           id="g1189"
           transform="translate(319.2979,35.4712)"><path
             d="m 0,0 h 165.348 c 10.954,0 19.834,-8.88 19.834,-19.834 0,-4.494 -3.644,-8.137 -8.138,-8.137 H -78.718 c -4.494,0 -8.137,3.643 -8.137,8.137 0,10.954 8.88,19.834 19.834,19.834 h 37.023"
             style="fill:none;stroke:#000000;stroke-width:15;stroke-linecap:round;stroke-linejoin:round;stroke-miterlimit:10;stroke-dasharray:none;stroke-opacity:1"
             id="path1191" /></g><g
           id="g1193"
           transform="translate(482.3447,35.4712)"><path
             d="m 0,0 v 131.964 c 0,9.154 -7.421,16.575 -16.575,16.575 h -195.321 c -9.154,0 -16.575,-7.421 -16.575,-16.575 V 0"
             style="fill:none;stroke:#000000;stroke-width:15;stroke-linecap:round;stroke-linejoin:round;stroke-miterlimit:10;stroke-dasharray:none;stroke-opacity:1"
             id="path1195" /></g></g></g></g></svg>
