<svg version="1.1" id="Capa_1" xmlns="http://www.w3.org/2000/svg" xmlns:xlink="http://www.w3.org/1999/xlink" x="0px" y="0px" viewBox="0 0 512 512" style="enable-background:new 0 0 512 512;" xml:space="preserve">
<g>
	<g>
		<path style="fill:#F7EBEB;" d="M396.174,504.5H59.081c-19.203,0-34.77-15.567-34.77-34.77V42.27&#10;&#9;&#9;&#9;c0-19.203,15.567-34.77,34.77-34.77h337.093c19.203,0,34.77,15.567,34.77,34.77v427.46&#10;&#9;&#9;&#9;C430.944,488.933,415.377,504.5,396.174,504.5z"/>
		<path style="fill:#F2E1E1;" d="M400.648,7.796c0.188,1.466,0.296,2.957,0.296,4.474v427.46c0,19.203-15.567,34.77-34.77,34.77&#10;&#9;&#9;&#9;H29.081c-1.517,0-3.008-0.108-4.474-0.296c2.197,17.088,16.788,30.296,34.474,30.296h337.093c19.203,0,34.77-15.567,34.77-34.77&#10;&#9;&#9;&#9;V42.27C430.944,24.584,417.736,9.993,400.648,7.796z"/>
		<path style="fill:#0094FF;" d="M430.944,80.271V42.27c0-19.203-15.567-34.77-34.77-34.77H59.081&#10;&#9;&#9;&#9;c-19.203,0-34.77,15.567-34.77,34.77v38.001H430.944z"/>
		<path style="fill:#0083FF;" d="M396.174,7.5h-30c19.203,0,34.77,15.567,34.77,34.77v38.001h30V42.27&#10;&#9;&#9;&#9;C430.944,23.067,415.377,7.5,396.174,7.5z"/>
		<circle style="fill:#00D8A2;" cx="408.763" cy="384.205" r="78.926"/>
		<path style="fill:#00C4A4;" d="M408.763,305.28c-5.131,0-10.142,0.506-15,1.441c36.413,7.009,63.926,39.026,63.926,77.484&#10;&#9;&#9;&#9;s-27.513,70.475-63.926,77.484c4.858,0.935,9.869,1.441,15,1.441c43.589,0,78.926-35.336,78.926-78.925&#10;&#9;&#9;&#9;S452.353,305.28,408.763,305.28z"/>
		<path style="fill:#FFF5F5;" d="M455.315,362.637l-14.632-14.632c-3.089-3.089-8.096-3.089-11.185,0l-29.683,29.682&#10;&#9;&#9;&#9;c-1.508,1.508-3.952,1.508-5.46,0l-6.329-6.329c-3.089-3.089-8.096-3.089-11.185,0l-14.632,14.632&#10;&#9;&#9;&#9;c-3.089,3.088-3.089,8.096,0,11.185l17.658,18.369c4.409,4.587,10.497,7.179,16.859,7.179h0c6.202,0,12.15-2.464,16.536-6.849&#10;&#9;&#9;&#9;l42.052-42.052C458.404,370.733,458.404,365.725,455.315,362.637z"/>
		<path style="fill:#00D1FD;" d="M386.502,180.914h-94.143c-5.246,0-9.499-4.253-9.499-9.499v-20.004&#10;&#9;&#9;&#9;c0-5.246,4.253-9.499,9.499-9.499h94.143c5.246,0,9.499,4.253,9.499,9.499v20.004&#10;&#9;&#9;&#9;C396.001,176.661,391.748,180.914,386.502,180.914z"/>
		<path style="fill:#00D1FD;" d="M386.502,258.365h-94.143c-5.246,0-9.499-4.253-9.499-9.499v-20.004&#10;&#9;&#9;&#9;c0-5.246,4.253-9.499,9.499-9.499h94.143c5.246,0,9.499,4.253,9.499,9.499v20.004&#10;&#9;&#9;&#9;C396.001,254.112,391.748,258.365,386.502,258.365z"/>
		<circle style="fill:#FFD250;" cx="158.741" cy="205.913" r="91.792"/>
		<path style="fill:#00A8FF;" d="M158.741,297.705c23.06,0,44.116-8.523,60.24-22.565c-9.141-24.39-32.658-41.755-60.24-41.755&#10;&#9;&#9;&#9;c-27.581,0-51.099,17.365-60.24,41.755C114.624,289.182,135.681,297.705,158.741,297.705z"/>
		<path style="fill:#CA6E59;" d="M120.859,207.095v8.595c0,21.086,17.094,38.18,38.18,38.18h0c21.086,0,38.18-17.094,38.18-38.18&#10;&#9;&#9;&#9;v-9.09l-38.18-25.337L120.859,207.095z"/>
		<path style="fill:#518E9A;" d="M159.039,155.926L159.039,155.926c-21.086,0-38.18,17.094-38.18,38.18V206.6l12.049-3.456&#10;&#9;&#9;&#9;c9.542-2.736,18.431-7.377,26.131-13.641l0,0v0c6.374,6.011,14.114,10.383,22.554,12.737l15.626,4.36v-12.495&#10;&#9;&#9;&#9;C197.219,173.02,180.125,155.926,159.039,155.926z"/>
	</g>
	<g>
		<path style="fill:none;stroke:#000000;stroke-width:15;stroke-linecap:round;stroke-linejoin:round;stroke-miterlimit:10;" d="&#10;&#9;&#9;&#9;M24.311,143.27v-101c0-19.203,15.567-34.77,34.77-34.77h337.093c19.203,0,34.77,15.567,34.77,34.77v225.796"/>
		<path style="fill:none;stroke:#000000;stroke-width:15;stroke-linecap:round;stroke-linejoin:round;stroke-miterlimit:10;" d="&#10;&#9;&#9;&#9;M430.944,463.131v6.599c0,19.203-15.567,34.77-34.77,34.77H59.081c-19.203,0-34.77-15.567-34.77-34.77V182.27"/>
		
			<circle style="fill:none;stroke:#000000;stroke-width:15;stroke-linecap:round;stroke-linejoin:round;stroke-miterlimit:10;" cx="408.763" cy="384.205" r="78.926"/>
		<path style="fill:none;stroke:#000000;stroke-width:15;stroke-linecap:round;stroke-linejoin:round;stroke-miterlimit:10;" d="&#10;&#9;&#9;&#9;M455.315,362.637l-14.632-14.632c-3.089-3.089-8.096-3.089-11.185,0l-29.683,29.682c-1.508,1.508-3.952,1.508-5.46,0l-6.329-6.329&#10;&#9;&#9;&#9;c-3.089-3.089-8.096-3.089-11.185,0l-14.632,14.632c-3.089,3.088-3.089,8.096,0,11.185l17.658,18.369&#10;&#9;&#9;&#9;c4.409,4.587,10.497,7.179,16.859,7.179h0c6.202,0,12.15-2.464,16.536-6.849l42.052-42.052&#10;&#9;&#9;&#9;C458.404,370.733,458.404,365.725,455.315,362.637z"/>
		<path style="fill:none;stroke:#000000;stroke-width:15;stroke-linecap:round;stroke-linejoin:round;stroke-miterlimit:10;" d="&#10;&#9;&#9;&#9;M386.502,180.914h-94.143c-5.246,0-9.499-4.253-9.499-9.499v-20.004c0-5.246,4.253-9.499,9.499-9.499h94.143&#10;&#9;&#9;&#9;c5.246,0,9.499,4.253,9.499,9.499v20.004C396.001,176.661,391.748,180.914,386.502,180.914z"/>
		<path style="fill:none;stroke:#000000;stroke-width:15;stroke-linecap:round;stroke-linejoin:round;stroke-miterlimit:10;" d="&#10;&#9;&#9;&#9;M386.502,258.365h-94.143c-5.246,0-9.499-4.253-9.499-9.499v-20.004c0-5.246,4.253-9.499,9.499-9.499h94.143&#10;&#9;&#9;&#9;c5.246,0,9.499,4.253,9.499,9.499v20.004C396.001,254.112,391.748,258.365,386.502,258.365z"/>
		
			<line style="fill:none;stroke:#000000;stroke-width:15;stroke-linecap:round;stroke-linejoin:round;stroke-miterlimit:10;" x1="70.456" y1="332.643" x2="282.86" y2="332.643"/>
		
			<line style="fill:none;stroke:#000000;stroke-width:15;stroke-linecap:round;stroke-linejoin:round;stroke-miterlimit:10;" x1="70.456" y1="374.526" x2="282.86" y2="374.526"/>
		
			<line style="fill:none;stroke:#000000;stroke-width:15;stroke-linecap:round;stroke-linejoin:round;stroke-miterlimit:10;" x1="70.456" y1="416.41" x2="282.86" y2="416.41"/>
		
			<line style="fill:none;stroke:#000000;stroke-width:15;stroke-linecap:round;stroke-linejoin:round;stroke-miterlimit:10;" x1="70.456" y1="458.293" x2="282.86" y2="458.293"/>
		
			<line style="fill:none;stroke:#000000;stroke-width:15;stroke-linecap:round;stroke-linejoin:round;stroke-miterlimit:10;" x1="24.311" y1="80.271" x2="430.944" y2="80.271"/>
		
			<line style="fill:none;stroke:#000000;stroke-width:15;stroke-linecap:round;stroke-linejoin:round;stroke-miterlimit:10;" x1="327.692" y1="45.242" x2="327.692" y2="45.242"/>
		
			<line style="fill:none;stroke:#000000;stroke-width:15;stroke-linecap:round;stroke-linejoin:round;stroke-miterlimit:10;" x1="355.518" y1="45.242" x2="355.518" y2="45.242"/>
		
			<line style="fill:none;stroke:#000000;stroke-width:15;stroke-linecap:round;stroke-linejoin:round;stroke-miterlimit:10;" x1="383.343" y1="45.242" x2="383.343" y2="45.242"/>
		<path style="fill:none;stroke:#000000;stroke-width:15;stroke-linecap:round;stroke-linejoin:round;stroke-miterlimit:10;" d="&#10;&#9;&#9;&#9;M126.981,241.764c-13,7.4-23.168,19.202-28.48,33.376"/>
		<path style="fill:none;stroke:#000000;stroke-width:15;stroke-linecap:round;stroke-linejoin:round;stroke-miterlimit:10;" d="&#10;&#9;&#9;&#9;M218.981,275.14c-5.513-14.711-16.256-26.866-29.966-34.196"/>
		<path style="fill:none;stroke:#000000;stroke-width:15;stroke-linecap:round;stroke-linejoin:round;stroke-miterlimit:10;" d="&#10;&#9;&#9;&#9;M197.219,206.6v9.09c0,21.086-17.094,38.18-38.18,38.18h0c-21.086,0-38.18-17.094-38.18-38.18v-8.595"/>
		
			<circle style="fill:none;stroke:#000000;stroke-width:15;stroke-linecap:round;stroke-linejoin:round;stroke-miterlimit:10;" cx="158.741" cy="205.913" r="91.792"/>
		<path style="fill:none;stroke:#000000;stroke-width:15;stroke-linecap:round;stroke-linejoin:round;stroke-miterlimit:10;" d="&#10;&#9;&#9;&#9;M197.219,206.6v-12.495c0-21.086-17.094-38.18-38.18-38.18h0c-21.086,0-38.18,17.094-38.18,38.18V206.6"/>
		<path style="fill:none;stroke:#000000;stroke-width:15;stroke-linecap:round;stroke-linejoin:round;stroke-miterlimit:10;" d="&#10;&#9;&#9;&#9;M120.859,203.886c24.62,0,33.797-8.462,36.839-12.67c0.638-0.883,2.044-0.883,2.682,0c3.042,4.208,12.219,12.67,36.839,12.67"/>
	</g>
</g>
<g>
</g>
<g>
</g>
<g>
</g>
<g>
</g>
<g>
</g>
<g>
</g>
<g>
</g>
<g>
</g>
<g>
</g>
<g>
</g>
<g>
</g>
<g>
</g>
<g>
</g>
<g>
</g>
<g>
</g>
</svg>