<svg id="Layer_2" enable-background="new 0 0 60 60" viewBox="0 0 60 60" xmlns="http://www.w3.org/2000/svg"><g><g><g><g><g><circle cx="15.688" cy="30" fill="#e7eef9" r="9.688"/></g></g></g><g><g><g><path d="m15.6875 40.6875c-5.8930664 0-10.6875-4.7944336-10.6875-10.6875s4.7944336-10.6875 10.6875-10.6875 10.6875 4.7944336 10.6875 10.6875-4.7944336 10.6875-10.6875 10.6875zm0-19.375c-4.7905273 0-8.6875 3.8969727-8.6875 8.6875s3.8969727 8.6875 8.6875 8.6875 8.6875-3.8969727 8.6875-8.6875-3.8969727-8.6875-8.6875-8.6875z"/></g></g></g></g><g><g><g><g><path d="m15.6860552 31.9062901c-3.1760254 0-6.0010986 1.5266132-7.7645869 3.8954487 4.8466792 5.653656 10.078186 4.7092285 15.5292358 0-1.7634883-2.3688355-4.5886226-3.8954487-7.7646489-3.8954487z" fill="#e3334f"/></g></g></g><g><g><g><path d="m15.1201172 40.6962891c-.2182617 0-.4355469-.0078125-.652832-.0244141-2.6152344-.1958008-5.0732422-1.6157227-7.3051758-4.2192383-.3041992-.3549805-.3217773-.8730469-.0429688-1.2480469 2.0043945-2.6914063 5.206543-4.2983398 8.5668945-4.2983398s6.5625 1.6069336 8.5668945 4.2983398c.3129883.4204102.2480469 1.0112305-.1484375 1.3540039-3.2167968 2.7788086-6.1640624 4.1376954-8.9843749 4.1376954zm-5.8818359-4.9267578c1.7226563 1.8134766 3.4882813 2.7661133 5.378418 2.9082031 2.2543945.1665039 4.6928711-.815918 7.4277344-3.0063477-1.6352539-1.7680664-3.9047852-2.7651367-6.3583984-2.7651367-2.4985353 0-4.8066408 1.0341797-6.447754 2.8632813z"/></g></g></g></g><g><g><g><g><circle cx="15.686" cy="28.353" fill="#f4d2b1" r="3.57"/></g></g></g><g><g><g><path d="m15.6860352 32.9233398c-2.5200195 0-4.5703125-2.050293-4.5703125-4.5703125s2.050293-4.5703125 4.5703125-4.5703125 4.5703125 2.050293 4.5703125 4.5703125-2.050293 4.5703125-4.5703125 4.5703125zm0-7.140625c-1.4174805 0-2.5703125 1.152832-2.5703125 2.5703125s1.152832 2.5703125 2.5703125 2.5703125 2.5703125-1.152832 2.5703125-2.5703125-1.1528321-2.5703125-2.5703125-2.5703125z"/></g></g></g></g><g><g><g><g><path d="m54.0000191 15.6899824c0 2.170043-.710022 4.1799917-1.9199829 5.7999868-1.7700195 2.3600464-4.5900269 3.8900146-7.7700195 3.8900146s-5.9899902-1.5299683-7.7600098-3.8900146c-1.210022-1.6199951-1.9199829-3.6299438-1.9199829-5.7999868 0-5.3499756 4.3300171-9.6900024 9.6799927-9.6900024s9.6900024 4.3400268 9.6900024 9.6900024z" fill="#e7eef9"/></g></g></g><g><g><g><path d="m44.3100586 26.3798828c-3.3955078 0-6.515625-1.5634766-8.5600586-4.2900391-1.387207-1.8569336-2.1201172-4.0693359-2.1201172-6.3999023 0-5.8945312 4.7910156-10.6899414 10.6801758-10.6899414 5.8945312 0 10.6899414 4.7954102 10.6899414 10.6899414 0 2.3305664-.7329102 4.5429688-2.1186523 6.3984375-2.0458985 2.7280274-5.1694336 4.2915039-8.5712891 4.2915039zm0-19.3798828c-4.7861328 0-8.6801758 3.8984375-8.6801758 8.6899414 0 1.8955078.5952148 3.6943359 1.7211914 5.2011719 1.6621094 2.2167969 4.1987305 3.4887695 6.9589844 3.4887695 2.7661133 0 5.3066406-1.2719727 6.9702148-3.4902344 1.1245118-1.5053711 1.7197266-3.3041992 1.7197266-5.199707 0-4.7915039-3.8984375-8.6899414-8.6899414-8.6899414z"/></g></g></g></g><g><g><g><g><path d="m52.0800362 21.4899693c-1.7700195 2.3600464-4.5900269 3.8900146-7.7700195 3.8900146s-5.9899902-1.5299683-7.7600098-3.8900146c1.7600098-2.3699951 4.5900269-3.8999634 7.7600098-3.8999634 3.1799926 0 5.9999999 1.5299682 7.7700195 3.8999634z" fill="#2ba4f5"/></g></g></g><g><g><g><path d="m44.3100586 26.3798828c-3.3955078 0-6.515625-1.5634766-8.5600586-4.2900391-.265625-.3544922-.2670898-.8408203-.0029297-1.1962891 2.0019531-2.6948242 5.203125-4.3037109 8.5629883-4.3037109 3.4052734 0 6.5292969 1.5678711 8.5712891 4.3012695.265625.3554688.2651367.84375-.0014648 1.1987305-2.0444337 2.7265626-5.1679688 4.2900391-8.5698243 4.2900391zm-6.4702148-4.8916015c1.6508789 1.8466797 3.96875 2.8916016 6.4702148 2.8916016 2.5068359 0 4.828125-1.0444336 6.4794922-2.8911133-1.6494141-1.8515625-3.9707031-2.8989258-6.4794922-2.8989258-2.4716797 0-4.8374023 1.071289-6.4702148 2.8984375z"/></g></g></g></g><g><g><g><g><circle cx="44.311" cy="14.041" fill="#f4d2b1" r="3.57"/></g></g></g><g><g><g><path d="m44.3110352 18.6108398c-2.5200195 0-4.5703125-2.050293-4.5703125-4.5703125s2.050293-4.5703125 4.5703125-4.5703125 4.5703125 2.050293 4.5703125 4.5703125-2.050293 4.5703125-4.5703125 4.5703125zm0-7.140625c-1.4174805 0-2.5703125 1.152832-2.5703125 2.5703125s1.152832 2.5703125 2.5703125 2.5703125 2.5703125-1.152832 2.5703125-2.5703125-1.1528321-2.5703125-2.5703125-2.5703125z"/></g></g></g></g><g><g><g><g><circle cx="44.313" cy="44.312" fill="#e7eef9" r="9.688"/></g></g></g><g><g><g><path d="m44.3124962 55c-5.8930626 0-10.6874962-4.7944336-10.6874962-10.6875s4.7944336-10.6875 10.6874962-10.6875c5.8930702 0 10.6875038 4.7944336 10.6875038 10.6875s-4.7944336 10.6875-10.6875038 10.6875zm0-19.375c-4.7905235 0-8.6874962 3.8969727-8.6874962 8.6875s3.8969727 8.6875 8.6874962 8.6875c4.7905311 0 8.6875038-3.8969727 8.6875038-8.6875s-3.8969727-8.6875-8.6875038-8.6875z"/></g></g></g></g><g><g><g><g><path d="m44.3139839 46.2187309c-3.1760254 0-6.0010986 1.5266113-7.7645874 3.8955078 5.1769409 5.1822815 10.3533936 5.1796875 15.5292358 0-1.7634887-2.3688964-4.588623-3.8955078-7.7646484-3.8955078z" fill="#52c392"/></g></g></g><g><g><g><path d="m44.3134766 55c-2.8510742 0-5.7011719-1.4057617-8.4716797-4.1791992-.3505859-.3505859-.3911133-.9057617-.0947266-1.3037109 2.0039063-2.6914063 5.2060547-4.2983398 8.5668945-4.2983398s6.5629883 1.6069336 8.5668945 4.2983398c.2963867.3979492.2558594.953125-.0947266 1.3041992-2.7705077 2.7724609-5.6206054 4.1782226-8.4716796 4.1787109 0 0-.0004883 0-.0009765 0zm-6.4028321-4.9672852c2.1616211 1.9697266 4.3125 2.9672852 6.4028321 2.9672852h.0009766c2.090332-.0004883 4.2407227-.9975586 6.402832-2.9672852-1.6381836-1.7983398-3.9272461-2.8139648-6.4033203-2.8139648s-4.7651368 1.015625-6.4033204 2.8139648z"/></g></g></g></g><g><g><g><g><circle cx="44.314" cy="42.665" fill="#f4d2b1" r="3.57"/></g></g></g><g><g><g><path d="m44.3139648 47.2358398c-2.5200195 0-4.5703125-2.050293-4.5703125-4.5703125s2.050293-4.5703125 4.5703125-4.5703125 4.5703125 2.050293 4.5703125 4.5703125-2.0502929 4.5703125-4.5703125 4.5703125zm0-7.140625c-1.4174805 0-2.5703125 1.152832-2.5703125 2.5703125s1.152832 2.5703125 2.5703125 2.5703125 2.5703125-1.152832 2.5703125-2.5703125-1.152832-2.5703125-2.5703125-2.5703125z"/></g></g></g></g><g><g><g><g><path d="m24.4521484 26.8701172c-.3457031 0-.6821289-.1791992-.8671875-.5004883-.2758789-.4785156-.1118164-1.0898438.3666992-1.3657227l10.972168-6.3286133c.4770508-.2768555 1.0898438-.112793 1.3657227.3666992.2758789.4785156.1118164 1.0898438-.3666992 1.3657227l-10.972168 6.3286133c-.1572266.0908203-.3291016.1337891-.4985352.1337891z"/></g></g></g></g><g><g><g><g><path d="m35.4223633 41.4584961c-.1694336 0-.3413086-.0429688-.4985352-.1337891l-10.972168-6.3286133c-.4785156-.2758789-.6425781-.887207-.3666992-1.3657227.2753906-.4794922.8867188-.6430664 1.3657227-.3666992l10.972168 6.3286133c.4785156.2758789.6425781.887207.3666992 1.3657227-.1850586.3212891-.5214844.5004883-.8671875.5004883z"/></g></g></g></g></g></svg>